<svg xmlns="http://www.w3.org/2000/svg" viewBox="0 0 846.7 283.7"><style type="text/css">  
	.st0{fill:#FFFFFF;}
</style><path class="st0" d="M189.1 33.6 185.5 12.4c-1.7 0-3.5 0.1-5.4 0.3 -27.7 2.9-45.2 16.2-47.1 17.7 -2.9 2.1-26.9 20.6-27.3 42.7 -0.4 22.5 19.1 44.6 29.5 56.4 2.2 2.5 3.7 4.2 4.4 5.1 4.6 6.4 10.5 15.8 8.3 23.7 -2.2 7.8-8.3 16.8-36 17H15.3c-3.4 0-6.1 2.7-6.1 6.1 0 3.4 2.7 6.1 6.1 6.1h96.6c27.6-0.2 42.8-8.4 47.8-25.9 4.1-14.5-6.2-28.8-10.1-34.2 -1.1-1.5-2.7-3.4-5.1-6 -8.7-9.9-26.8-30.4-26.5-48.1 0.3-13.7 16.2-28.5 22.4-33.1l0.3-0.3c0.1-0.1 15.5-12.4 40.7-15.1 5.3-0.5 12.3-0.4 15.2 3.5 2.9 3.8 1.8 10.5 0.4 14 -2.1 5.5-15.2 32.1-21.8 45.5 -1.5 3-0.3 6.7 2.8 8.2 1.5 0.7 3.1 0.8 4.7 0.3 1.5-0.5 2.8-1.6 3.5-3.1 6.7-13.4 19.9-40.4 22.2-46.5 2.8-7.1 3.9-18.1-2.1-25.9C202.1 15.3 194.9 12.4 185.5 12.4M15.3 196.7c-8.4 0-15.3-6.9-15.3-15.3S6.9 166 15.3 166h96.5c24.3-0.1 26.3-7.3 27.2-10.3 0.5-1.7 0.2-5.9-6.9-15.8 -0.5-0.7-2.5-2.9-3.8-4.4C117.1 122.7 96 99 96.5 72.9 97 47 122.4 26.8 127.4 23c3.3-2.6 22.1-16.4 51.7-19.5 19.6-2.1 29.6 5.3 34.5 11.8 8.3 10.9 7 25.6 3.3 34.8 -3.1 7.9-21.8 45.6-22.6 47.2 -1.8 3.7-5 6.4-8.8 7.7 -3.9 1.3-8 1-11.7-0.8 -7.6-3.7-10.7-13-6.9-20.5 9.2-18.5 19.8-40.5 21.5-44.7 0.7-1.7 0.8-3.8 0.7-4.9 -1-0.3-3.2-0.6-6.9-0.2 -22.1 2.3-35.8 13-35.9 13.1 -0.2 0.2-0.4 0.3-0.6 0.5 -5.8 4.3-18.5 16.7-18.6 25.8 -0.3 14.2 16.9 33.5 24.2 41.8 2.5 2.9 4.3 4.9 5.7 6.8 4.6 6.4 16.8 23.3 11.5 42.1 -6.1 21.4-25.1 32.4-56.6 32.6H15.3zM816 33.6 812.3 12.4c-1.7 0-3.5 0.1-5.4 0.3 -27.7 2.9-45.2 16.2-47.1 17.7C757 32.5 732.9 51 732.5 73c-0.4 22.5 19.1 44.6 29.5 56.4 2.2 2.5 3.7 4.2 4.4 5.1 4.6 6.4 10.5 15.8 8.3 23.7 -2.2 7.8-8.3 16.8-36 17H609.6c-3.4 0-6.1 2.7-6.1 6.1 0 3.4 2.8 6.1 6.1 6.1h129.1c27.6-0.2 42.8-8.4 47.8-25.9 4.1-14.5-6.2-28.8-10.1-34.2 -1.1-1.5-2.7-3.4-5.1-6 -8.7-9.9-26.8-30.4-26.5-48.1 0.3-13.7 16.2-28.5 22.4-33.1l0.3-0.3c0.1-0.1 15.5-12.4 40.7-15.1 5.3-0.5 12.3-0.4 15.2 3.5 2.9 3.8 1.8 10.5 0.4 14 -2.1 5.5-15.2 32.1-21.8 45.5 -0.7 1.5-0.8 3.1-0.3 4.7 0.5 1.5 1.6 2.8 3.1 3.5 1.5 0.7 3.1 0.8 4.7 0.3 1.5-0.5 2.8-1.6 3.5-3.1 6.7-13.4 19.9-40.4 22.2-46.5 2.8-7.1 3.9-18.1-2.1-25.9C828.9 15.3 821.8 12.4 812.3 12.4M609.6 196.7c-8.4 0-15.3-6.9-15.3-15.3s6.9-15.3 15.3-15.3h129.1c24.3-0.1 26.3-7.3 27.2-10.3 0.5-1.7 0.2-5.9-6.9-15.8 -0.5-0.7-2.5-2.9-3.8-4.4 -11.3-12.8-32.3-36.6-31.8-62.7 0.5-25.9 25.8-46.1 30.9-49.8 3.3-2.6 22.1-16.4 51.7-19.5 19.5-2 29.6 5.3 34.5 11.8 8.3 10.9 7 25.6 3.4 34.8 -3.1 7.9-21.8 45.6-22.6 47.2 -1.8 3.7-5 6.4-8.8 7.7 -3.9 1.3-8 1-11.7-0.8 -3.7-1.8-6.4-5-7.7-8.8 -1.3-3.9-1-8 0.8-11.7 9.2-18.5 19.8-40.5 21.5-44.7 0.7-1.7 0.8-3.8 0.7-4.9 -1-0.3-3.2-0.6-6.9-0.2 -22.1 2.3-35.8 13-35.9 13.1 -0.2 0.2-0.4 0.3-0.6 0.5 -5.8 4.3-18.5 16.7-18.6 25.8 -0.3 14.2 16.9 33.5 24.2 41.8 2.5 2.9 4.3 4.9 5.7 6.8 4.6 6.4 16.8 23.3 11.5 42.1 -6.1 21.4-25.1 32.4-56.6 32.6H609.6zM250.1 112.3h70.6L276.4 207c-1.4 3.1-0.1 6.7 3 8.1 3 1.4 6.8 0 8.1-3l89.4-191.1c1.4-3.1 0.1-6.7-3-8.1h0c-3-1.4-6.7-0.1-8.1 3l-39.4 84.2h-70.5l37-79c1.4-3.1 0.1-6.7-2.9-8.2 -1.5-0.7-3.1-0.8-4.7-0.2 -1.5 0.6-2.8 1.7-3.5 3.2l-39.4 84.2H215c-3.4 0-6.1 2.7-6.1 6.1 0 3.4 2.7 6.1 6.1 6.1h21.5l-31.9 68.1c-0.7 1.5-0.8 3.1-0.2 4.7 0.6 1.5 1.7 2.8 3.2 3.5 3 1.4 6.8 0 8.2-2.9L250.1 112.3zM281.9 224.9c-2.2 0-4.4-0.5-6.5-1.4 -7.7-3.6-11-12.7-7.4-20.4l38.2-81.6h-50.3l-31.9 68c-2.5 5.4-8 8.8-13.9 8.8 -2.3 0-4.4-0.5-6.5-1.5 -3.7-1.7-6.5-4.8-7.9-8.7 -1.4-3.8-1.2-8 0.5-11.7l25.8-55H215c-8.4 0-15.3-6.9-15.3-15.3 0-8.4 6.9-15.3 15.3-15.3h21.4l37-78.9c1.7-3.7 4.8-6.5 8.7-7.9s8-1.2 11.7 0.5c7.6 3.6 11 12.7 7.4 20.4l-30.9 65.9h50.2L357.4 12c3.6-7.6 12.7-11 20.4-7.4 7.6 3.6 11 12.7 7.4 20.4l-89.4 191.1C293.3 221.5 287.8 224.9 281.9 224.9M474.4 12.4c-18.6 0-33.6 6.6-43.4 11.7 -28.8 14.9-41.7 37.2-35.2 61 0.5 2.3 1.6 6.3 4.4 10.9l3.2 5.2 -5.9 1.7c-20.1 5.7-42.6 20.9-45.2 46.5 -1.3 13 3.3 21.2 7.3 25.8 10.3 11.7 26.9 12.4 28.8 12.5h120.4c3.4 0 6.1-2.7 6.1-6.1 0-3.4-2.8-6.1-6.1-6.1H388.6c-0.8 0-13.1-0.7-19.8-8.4 -3.5-4.1-4.9-9.4-4.2-16.4 2.7-26.8 33.2-39.1 62.3-39.4h0.2l0.2 0c3 0.2 6.6 0.4 10 0.4 3.4 0 6-0.1 6.6-0.1 3.4-0.1 6-3 5.9-6.4 -0.1-3.3-3.1-5.9-6.4-5.9 -2.4 0.1-8.5 0.2-13.8-0.1l-0.5-0.1c-0.3-0.1-0.7-0.1-1.1-0.1l-0.7 0 -0.2 0c-1.2-0.1-2.3-0.2-3.3-0.4 -12.7-2.2-15.6-14.3-15.9-15.6 -0.1-0.3-0.1-0.5-0.2-0.6 -5.2-18.4 4.9-34.7 28.9-47.2 9.6-5 22.7-10.7 39.3-10.3 4.1 0.1 7 1.1 8.5 2.9 1.3 1.6 2.7 5.3 1.2 13.3 -1.3 7.3-10.9 24.9-14.5 31.1 -1.7 2.9-0.7 6.7 2.2 8.4 2.9 1.7 6.7 0.7 8.4-2.2 6.5-11.1 14.5-27 16-35.1 1.8-10.1 0.5-17.9-3.8-23.2 -2.7-3.3-7.9-7.2-17.7-7.4C475.7 12.4 475.1 12.4 474.4 12.4M508.9 196.7H388.4c-3.8-0.1-23-1.3-35.6-15.6 -5.3-6-11.2-16.5-9.5-32.8 2.4-23.7 20-43.5 46.4-52.8 -1.3-2.8-2.2-5.7-2.8-8.5 -7.6-28.1 6.9-54.1 39.9-71.3 11-5.7 28.1-13.2 49.7-12.7 13.3 0.3 20.7 6 24.6 10.8 6.1 7.5 8.1 17.8 5.8 30.7 -2.1 11.7-13.6 32.1-17.1 38.1 -4.2 7.3-13.6 9.8-20.9 5.5 -7.3-4.2-9.8-13.6-5.6-20.9 5.8-10.1 12.6-23.8 13.4-28.1 0.5-2.6 0.5-4.3 0.5-5.3 -0.4 0-0.8-0.1-1.4-0.1 -14.6-0.3-26.3 4.8-34.9 9.3 -20 10.4-28.2 22.7-24.3 36.5 0.1 0.4 0.2 0.9 0.3 1.3 0.1 0.6 1.8 7.2 8.5 8.4 0.7 0.1 1.4 0.2 2.3 0.3l0.3 0c0.9 0 1.8 0.1 2.4 0.2 4.5 0.2 10.1 0.2 12.8 0.1 8.5-0.2 15.6 6.4 15.9 14.7 0.3 8.4-6.3 15.6-14.7 15.9 -0.6 0-3.4 0.1-7 0.1 -2.5 0-6.4-0.1-10.5-0.4 -24.9 0.3-51 10-53.1 31.1 -0.4 4.3 0.2 7.4 2 9.5 3.4 3.9 10.8 5.1 13.1 5.2l120 0c8.4 0 15.3 6.9 15.3 15.3C524.2 189.9 517.4 196.7 508.9 196.7M620 11.5c-6.5 0-13.4 0.7-20.5 2.1 -17.8 3.5-61 16.3-77 60.2 -12.5 34.5 6.5 54.8 18.3 60.8 2.9 1.5 6.6 0.2 8.1-2.7 1.5-3 0.4-6.7-2.6-8.3 -2.5-1.3-23.9-13.9-12.3-45.7 13.3-36.7 48.2-48.6 67.8-52.4 15.6-3 53.5-6.4 69.1 28.1 4.5 10 4.7 19.8 0.4 29.1 -6.2 13.7-22.1 25.8-41.4 31.6 -3.2 1-5.1 4.4-4.1 7.6 0.5 1.6 1.5 2.9 3 3.6 1.4 0.8 3.1 0.9 4.7 0.5 22.9-6.9 41.3-21.2 49-38.3 5.7-12.5 5.5-26.1-0.4-39.3C671.3 24.6 648.8 11.5 620 11.5M543.6 144.4c-2.4 0-4.7-0.6-6.9-1.6 -14.3-7.2-37.5-31.6-22.8-72.1 17.6-48.3 64.5-62.3 83.9-66.1 42.9-8.4 77.6 6.7 92.7 40.3 7.1 15.7 7.2 31.9 0.4 46.8 -8.8 19.4-29.3 35.6-54.8 43.3 -3.9 1.2-8.1 0.8-11.7-1.2 -3.6-1.9-6.2-5.2-7.4-9.1 -2.4-8.1 2.2-16.6 10.3-19.1 16.9-5.1 30.5-15.3 35.7-26.6 3.1-6.8 2.9-14-0.4-21.5 -12.8-28.5-45.5-25.5-58.9-22.9 -17.7 3.4-49.1 14.1-60.9 46.5 -8.9 24.5 6.3 33.5 8 34.4 7.4 4 10.3 13.2 6.4 20.6C554.5 141.2 549.3 144.4 543.6 144.4M617.6 49.4c-2.3 0-4.5 1.3-5.6 3.6L540.7 207c-1.4 3.1-0.1 6.7 3 8.1 3 1.4 6.8 0 8.1-3l71.3-154.1c1.4-3.1 0.1-6.7-3-8.1C619.3 49.6 618.4 49.4 617.6 49.4M546.3 224.9c-2.2 0-4.4-0.5-6.4-1.4 -7.7-3.5-11-12.7-7.5-20.3l71.3-154.1c3.5-7.7 12.7-11 20.3-7.5l0 0c7.7 3.5 11 12.7 7.5 20.3L560.2 216C557.7 221.4 552.2 224.9 546.3 224.9M720.9 9.2c-0.7 0-1.4 0.1-2.1 0.4 -1.5 0.5-2.8 1.7-3.5 3.1L706 32.3c-0.7 1.5-0.8 3.1-0.2 4.7 0.5 1.5 1.7 2.8 3.1 3.5 3 1.4 6.8 0.1 8.2-2.9l9.4-19.7c0.7-1.5 0.8-3.1 0.3-4.7 -0.5-1.5-1.7-2.8-3.1-3.5C722.7 9.4 721.8 9.2 720.9 9.2M711.5 50.3c-2.3 0-4.5-0.5-6.6-1.5 -3.7-1.8-6.5-4.9-7.9-8.7 -1.4-3.9-1.1-8 0.6-11.7l9.4-19.7c1.8-3.7 4.9-6.5 8.7-7.8 3.9-1.4 8-1.1 11.7 0.6 3.7 1.8 6.5 4.9 7.8 8.7 1.4 3.9 1.1 8-0.6 11.7l-9.4 19.7C722.8 46.9 717.4 50.3 711.5 50.3M599.3 251.2c2.1 0 3.4-0.6 3.4-3.6v-11.2c0-2.9-1.5-3.4-3.9-3.4h-2.6v18.2H599.3zM602.9 258.1c0-2.4-1.4-3-3.6-3h-3v24h-4.6v-49.9h8.5c4.3 0 7 0.8 7 5.7v12.6c0 3.9-1.5 5.2-5 5.4v0.1c3.2 0.2 5.2 1.2 5.2 4.6v21.3h-4.6V258.1zM625.7 229.2v3.9h-7.5v18.2h7.2v3.9h-7.2v20.1h7.5v3.9h-12.1v-49.9H625.7zM641.8 236c0-1.9-0.5-3.4-2.6-3.4s-2.6 1.4-2.6 3.4v5.2c0 1.6 0.3 3.2 1 4.5l7.3 12.4c1 1.7 1.7 3.9 1.7 6.1v7.9c0 4.7-2.8 7.3-7.3 7.3 -5 0-7.5-2.3-7.5-7.3v-6.8h4.6v6.6c0 2.3 0.9 3.7 2.9 3.7 1.9 0 2.8-1.4 2.8-3.7v-7c0-1.7-0.3-3-1.3-4.8l-6.7-11.7c-1.2-2.1-1.9-3.8-1.9-6.4v-6c0-4.9 2.6-7.3 7.2-7.3 5.1 0 7.2 2.4 7.2 7v6.4h-4.6V236zM667.3 229.2v3.9h-5.1v46h-4.6v-46h-5.1v-3.9H667.3zM678.9 232.6h0.1l3.5 28.7h-7L678.9 232.6zM675.8 229.2l-7.3 49.9h4.6l1.9-13.8h8l1.9 13.8h4.6l-7.3-49.9H675.8zM705 229.2h4.6v43.2c0 5.5-4.1 7.1-8.1 7.1 -3.8 0-7.9-1.6-7.9-7.1v-43.2h4.6v41.7c0 3.6 1.2 4.7 3.5 4.7 2.4 0 3.5-1.1 3.5-4.7V229.2zM723.5 251.2c2.1 0 3.4-0.6 3.4-3.6v-11.2c0-2.9-1.5-3.4-3.9-3.4h-2.6v18.2H723.5zM727.1 258.1c0-2.4-1.4-3-3.6-3h-3v24h-4.6v-49.9h8.5c4.3 0 7 0.8 7 5.7v12.6c0 3.9-1.5 5.2-5 5.4v0.1c3.2 0.2 5.2 1.2 5.2 4.6v21.3h-4.6V258.1zM748.4 232.6h0.1l3.5 28.7h-7.1L748.4 232.6zM745.4 229.2l-7.3 49.9h4.6l1.9-13.8h8l1.9 13.8h4.6l-7.3-49.9H745.4zM781.6 229.2v49.9h-6.5l-5.7-44.3h-0.1v44.3h-4v-49.9h6.6l5.6 42.7h0.1v-42.7H781.6zM802.8 229.2v3.9h-5.1v46h-4.6v-46H788v-3.9H802.8zM39.8 267.1h27.5c3.3 0 5.5-0.8 5.5-3.7 0-3.4-2.2-4.1-5.5-4.1H39.8V267.1zM39.8 248.9h27.1c2.8 0 4.5-1 4.5-3.9 0-2.9-1.7-3.9-4.5-3.9H39.8V248.9zM24.4 229.1h44.1c12.2 0 18.2 3.3 18.2 13.1 0 8.6-3.1 10.2-7.4 11.5v0.2c6.7 0.8 9.2 4.4 9.2 11.9 0 11-6.5 13.3-15.3 13.3H24.4V229.1zM129.9 240.7l9.9 18.8h-19.6L129.9 240.7zM120 229.1l-27.1 50H110l4.5-8.8h31.1l4.8 8.8h17.1l-27.5-50H120zM188.2 253.7h25.4c4.1 0 5.7-1.7 5.7-5.3v-1.7c0-4.4-2.2-5.3-7-5.3h-24V253.7zM172.9 229.1h46.3c11.8 0 15 5.9 15 14.9v3.2c0 6.7-1.5 10.6-8.6 12.3v0.1c4.6 0.8 8.4 2.8 8.4 11.1v8.5h-15.3v-6c0-5.3-1.5-7-6.3-7h-24.1v13h-15.3V229.1zM372.2 229.3v7h-4.7v7.8h4.7v5.3h-4.7v7.7h4.7v22h10.8v-49.8H372.2zM386.6 283.7H399v-58.9h-12.4V283.7zM368.7 274.9l-3.9 4.3c-1.8-1.4-3.5-3-5-4.7 -1.5-1.8-3.2-3.3-3.8-4.7 -0.8 1.5-2.5 3-3.8 4.6 -1.3 1.5-2.8 3-4.4 4.3l-5.3-5.6c2.7-2.9 4.7-5.8 6-8.8 1.3-2.9 2-6 2-9.2v-25.7H361v25.2c0 2.5 0.5 5.2 1.5 7.9 1.3 3.8 3.4 6.9 6.2 9.5l1.5 1.2L368.7 274.9zM461.1 240.5l-2.6 14.5h10.5v8.8h-59.6V255h10l-2.6-14.5h10.6l2.6 14.5h18l2.6-14.5H461.1zM468.9 237.7h-59.6V229h59.6V237.7zM403.4 270.2h71.7v8.8h-71.7V270.2z"/></svg>