<?xml version="1.0" encoding="UTF-8"?>
<?xml-stylesheet href="../css/style.css" type="text/css"?>
<svg xmlns="http://www.w3.org/2000/svg" viewBox="0 0 209.8 50.1"><style type="text/css">
	.st0{fill:#FFFFFF;}
</style><path class="st0" d="M54.6 24.8v-0.2c5-1.3 7.6-3 7.6-11.5 0-9.8-5.9-13.2-18.1-13.2H-0.4v50h49.2c8.8 0 15.1-2.2 15.1-13.2C64 29.1 61.6 25.6 54.6 24.8zM15.6 11.9h26.9c2.8 0 4.5 1.1 4.5 4 0 2.9-1.7 4-4.5 4H15.6V11.9zM42.9 37.9H15.6v-8h27.3c3.3 0 5.5 0.8 5.5 4.2C48.4 37 46.2 37.9 42.9 37.9z"/><path class="st0" d="M115.6-0.1h-20l-27.1 50h17.1l4.5-9h31.1l4.8 9h17.1L115.6-0.1zM95.8 30.9l9.7-18.8 9.9 18.8H95.8z"/><path class="st0" d="M209.6 18.1v-3.2c0-9-3-15-14.8-15h-46.2v50h15v-13H188c4.8 0 6.6 1.9 6.6 7.2v5.8h15v-8.3c0-8.3-4-10.3-8-11.1v-0.1C208.6 28.7 209.6 24.8 209.6 18.1zM194.6 19.3c0 3.6-1.3 5.6-5.4 5.6h-25.6v-13h24.3c4.8 0 6.7 1.3 6.7 5.7V19.3z"/></svg>
