<svg xmlns="http://www.w3.org/2000/svg" viewBox="0 0 818.2 196.6"><style type="text/css">  
	.st0{fill:#FFFFFF;}
</style><path class="st0" d="M29.5 87c8.3 0 13.1-2.4 13.1-13.9V29.7c0-11.3-5.9-13.1-15-13.1h-9.9V87H29.5zM43.4 113.8c0-9.4-5.6-11.8-13.9-11.8H17.7V195H0V1.6h32.9c16.9 0 27.3 2.9 27.3 22.2v49c0 15-5.6 20.1-19.3 20.9v0.5c12.6 0.8 20.1 4.6 20.1 18V195H43.4V113.8z"/><polygon class="st0" points="84.8 1.6 84.8 195 131.7 195 131.7 180 102.5 180 102.5 102 130.4 102 130.4 87.1 102.5 87.1 102.5 16.6 131.7 16.6 131.7 1.6 "/><path class="st0" d="M194 28.1c0-7.5-1.9-13.1-10.2-13.1 -8.3 0-10.2 5.6-10.2 13.1v20.3c0 6.2 1.1 12.3 4 17.4l28.1 48.2c4 6.7 6.4 15 6.4 23.6v30.5c0 18.2-10.7 28.4-28.4 28.4 -19.6 0-28.9-8.8-28.9-28.4v-26.5h17.7v25.5c0 9.1 3.5 14.5 11.2 14.5 7.2 0 10.7-5.4 10.7-14.5v-27.1c0-6.7-1.3-11.8-5.1-18.5l-26-45.3c-4.8-8.3-7.5-14.7-7.5-24.6V28.4c0-19 9.9-28.4 27.9-28.4 19.8 0 27.9 9.4 27.9 27.1v24.6H194V28.1z"/><polygon class="st0" points="235.5 1.6 235.5 16.6 255.4 16.6 255.4 195 273.1 195 273.1 16.6 292.9 16.6 292.9 1.6 "/><path class="st0" d="M337.8 15h0.5l13.4 111.4h-27.3L337.8 15zM326.1 1.6L297.7 195h17.7l7.2-53.6h31.1l7.2 53.6h17.7L350.2 1.6H326.1z"/><path class="st0" d="M439.2 1.6h17.7V169c0 21.4-16.1 27.6-31.3 27.6 -14.7 0-30.8-6.2-30.8-27.6V1.6h17.7v161.8c0 13.9 4.6 18.2 13.4 18.2 9.1 0 13.4-4.3 13.4-18.2V1.6z"/><path class="st0" d="M511 87c8.3 0 13.1-2.4 13.1-13.9V29.7c0-11.3-5.9-13.1-15-13.1h-9.9V87H511zM524.9 113.8c0-9.4-5.6-11.8-13.9-11.8h-11.8V195h-17.7V1.6h32.9c16.9 0 27.3 2.9 27.3 22.2v49c0 15-5.6 20.1-19.3 20.9v0.5c12.6 0.8 20.1 4.6 20.1 18V195h-17.7V113.8z"/><path class="st0" d="M607.4 15h0.5l13.4 111.4H594L607.4 15zM595.6 1.6L567.3 195h17.7l7.2-53.6h31.1l7.2 53.6h17.7L619.7 1.6H595.6z"/><polygon class="st0" points="720.7 1.6 720.7 167.1 720.2 167.1 698.5 1.6 672.8 1.6 672.8 195 688.3 195 688.3 23 688.8 23 711.1 195 736.3 195 736.3 1.6 "/><polygon class="st0" points="760.9 1.6 760.9 16.6 780.7 16.6 780.7 195 798.4 195 798.4 16.6 818.2 16.6 818.2 1.6 "/></svg>