<?xml version="1.0" encoding="utf-8"?>
<!-- Generator: Adobe Illustrator 19.1.0, SVG Export Plug-In . SVG Version: 6.00 Build 0)  -->
<svg version="1.1" id="Layer_1" xmlns="http://www.w3.org/2000/svg" xmlns:xlink="http://www.w3.org/1999/xlink" x="0px" y="0px"
	 viewBox="0 0 134.9 45.2" style="enable-background:new 0 0 134.9 45.2;" xml:space="preserve">
<style type="text/css">
	.st0{fill:#FFFFFF;}
	.st1{fill:#6A3683;}
</style>
<g>
	<path class="st0" d="M30.1,5.4 M29.6,2c-0.3,0-0.6,0-0.9,0c-4.4,0.5-7.2,2.6-7.5,2.8c-0.5,0.3-4.3,3.3-4.4,6.8
		c-0.1,3.6,3,7.1,4.7,9c0.3,0.4,0.6,0.7,0.7,0.8c0.7,1,1.7,2.5,1.3,3.8c-0.4,1.2-1.3,2.7-5.7,2.7H2.4c-0.5,0-1,0.4-1,1
		c0,0.5,0.4,1,1,1h15.4c4.4,0,6.8-1.3,7.6-4.1c0.7-2.3-1-4.6-1.6-5.4c-0.2-0.2-0.4-0.5-0.8-1c-1.4-1.6-4.3-4.8-4.2-7.7
		c0-2.2,2.6-4.5,3.6-5.3l0.1,0c0,0,2.5-2,6.5-2.4c0.8-0.1,2-0.1,2.4,0.6c0.5,0.6,0.3,1.7,0.1,2.2c-0.3,0.9-2.4,5.1-3.5,7.2
		c-0.2,0.5,0,1.1,0.4,1.3c0.2,0.1,0.5,0.1,0.7,0.1c0.2-0.1,0.4-0.3,0.6-0.5c1.1-2.1,3.2-6.4,3.5-7.4c0.4-1.1,0.6-2.9-0.3-4.1
		C32.2,2.4,31.1,2,29.6,2 M2.4,31.3c-1.3,0-2.4-1.1-2.4-2.4c0-1.3,1.1-2.4,2.4-2.4h15.4c3.9,0,4.2-1.2,4.3-1.6
		c0.1-0.3,0-0.9-1.1-2.5c-0.1-0.1-0.4-0.5-0.6-0.7c-1.8-2-5.1-5.8-5.1-10c0.1-4.1,4.1-7.3,4.9-7.9c0.5-0.4,3.5-2.6,8.2-3.1
		c3.1-0.3,4.7,0.8,5.5,1.9c1.3,1.7,1.1,4.1,0.5,5.6c-0.5,1.3-3.5,7.3-3.6,7.5c-0.3,0.6-0.8,1-1.4,1.2c-0.6,0.2-1.3,0.2-1.9-0.1
		c-1.2-0.6-1.7-2.1-1.1-3.3c1.5-3,3.2-6.5,3.4-7.1c0.1-0.3,0.1-0.6,0.1-0.8c-0.2,0-0.5-0.1-1.1,0c-3.5,0.4-5.7,2.1-5.7,2.1
		c0,0-0.1,0.1-0.1,0.1c-0.9,0.7-2.9,2.7-3,4.1c0,2.3,2.7,5.3,3.9,6.7c0.4,0.5,0.7,0.8,0.9,1.1c0.7,1,2.7,3.7,1.8,6.7
		c-1,3.4-4,5.2-9,5.2H2.4z"/>
	<path class="st0" d="M130,5.4 M129.5,2c-0.3,0-0.6,0-0.9,0c-4.4,0.5-7.2,2.6-7.5,2.8c-0.5,0.3-4.3,3.3-4.4,6.8
		c-0.1,3.6,3,7.1,4.7,9c0.3,0.4,0.6,0.7,0.7,0.8c0.7,1,1.7,2.5,1.3,3.8c-0.4,1.2-1.3,2.7-5.7,2.7H97.1c-0.5,0-1,0.4-1,1
		c0,0.5,0.4,1,1,1h20.6c4.4,0,6.8-1.3,7.6-4.1c0.7-2.3-1-4.6-1.6-5.4c-0.2-0.2-0.4-0.5-0.8-1c-1.4-1.6-4.3-4.8-4.2-7.7
		c0-2.2,2.6-4.5,3.6-5.3l0.1,0c0,0,2.5-2,6.5-2.4c0.8-0.1,2-0.1,2.4,0.6c0.5,0.6,0.3,1.7,0.1,2.2c-0.3,0.9-2.4,5.1-3.5,7.2
		c-0.1,0.2-0.1,0.5-0.1,0.7c0.1,0.2,0.3,0.4,0.5,0.6c0.2,0.1,0.5,0.1,0.7,0.1c0.2-0.1,0.4-0.3,0.6-0.5c1.1-2.1,3.2-6.4,3.5-7.4
		c0.4-1.1,0.6-2.9-0.3-4.1C132.1,2.4,131,2,129.5,2 M97.1,31.3c-1.3,0-2.4-1.1-2.4-2.4c0-1.3,1.1-2.4,2.4-2.4h20.6
		c3.9,0,4.2-1.2,4.3-1.6c0.1-0.3,0-0.9-1.1-2.5c-0.1-0.1-0.4-0.5-0.6-0.7c-1.8-2-5.1-5.8-5.1-10c0.1-4.1,4.1-7.3,4.9-7.9
		c0.5-0.4,3.5-2.6,8.2-3.1c3.1-0.3,4.7,0.8,5.5,1.9c1.3,1.7,1.1,4.1,0.5,5.6c-0.5,1.3-3.5,7.3-3.6,7.5c-0.3,0.6-0.8,1-1.4,1.2
		c-0.6,0.2-1.3,0.2-1.9-0.1c-0.6-0.3-1-0.8-1.2-1.4s-0.2-1.3,0.1-1.9c1.5-3,3.2-6.5,3.4-7.1c0.1-0.3,0.1-0.6,0.1-0.8
		c-0.2,0-0.5-0.1-1.1,0c-3.5,0.4-5.7,2.1-5.7,2.1c0,0-0.1,0.1-0.1,0.1c-0.9,0.7-2.9,2.7-3,4.1c0,2.3,2.7,5.3,3.9,6.7
		c0.4,0.5,0.7,0.8,0.9,1.1c0.7,1,2.7,3.7,1.8,6.7c-1,3.4-4,5.2-9,5.2H97.1z"/>
	<path class="st0" d="M39.9,17.9h11.2L44,33c-0.2,0.5,0,1.1,0.5,1.3c0.5,0.2,1.1,0,1.3-0.5L60.1,3.4c0.2-0.5,0-1.1-0.5-1.3h0
		c-0.5-0.2-1.1,0-1.3,0.5L52,15.9H40.8l5.9-12.6c0.2-0.5,0-1.1-0.5-1.3C46,2,45.7,1.9,45.5,2c-0.2,0.1-0.4,0.3-0.6,0.5l-6.3,13.4
		h-4.3c-0.5,0-1,0.4-1,1c0,0.5,0.4,1,1,1h3.4l-5.1,10.9c-0.1,0.2-0.1,0.5,0,0.7c0.1,0.2,0.3,0.4,0.5,0.6c0.5,0.2,1.1,0,1.3-0.5
		L39.9,17.9z M44.9,35.8c-0.4,0-0.7-0.1-1-0.2c-1.2-0.6-1.7-2-1.2-3.2l6.1-13h-8l-5.1,10.8c-0.4,0.9-1.3,1.4-2.2,1.4
		c-0.4,0-0.7-0.1-1-0.2c-0.6-0.3-1-0.8-1.3-1.4c-0.2-0.6-0.2-1.3,0.1-1.9l4.1-8.8h-1.1c-1.3,0-2.4-1.1-2.4-2.4
		c0-1.3,1.1-2.4,2.4-2.4h3.4l5.9-12.6c0.3-0.6,0.8-1,1.4-1.3c0.6-0.2,1.3-0.2,1.9,0.1C48,1.3,48.6,2.8,48,4l-4.9,10.5h8L57,1.9
		c0.6-1.2,2-1.7,3.2-1.2c1.2,0.6,1.7,2,1.2,3.2L47.1,34.4C46.7,35.3,45.9,35.8,44.9,35.8"/>
	<path class="st0" d="M75.6,2c-3,0-5.4,1.1-6.9,1.9c-4.6,2.4-6.6,5.9-5.6,9.7c0.1,0.4,0.3,1,0.7,1.7l0.5,0.8l-0.9,0.3
		c-3.2,0.9-6.8,3.3-7.2,7.4c-0.2,2.1,0.5,3.4,1.2,4.1c1.6,1.9,4.3,2,4.6,2h19.2c0.5,0,1-0.4,1-1c0-0.5-0.4-1-1-1H61.9
		c-0.1,0-2.1-0.1-3.2-1.3c-0.6-0.6-0.8-1.5-0.7-2.6c0.4-4.3,5.3-6.2,9.9-6.3h0l0,0c0.5,0,1,0.1,1.6,0.1c0.5,0,1,0,1.1,0
		c0.5,0,1-0.5,0.9-1c0-0.5-0.5-0.9-1-0.9c-0.4,0-1.4,0-2.2,0l-0.1,0c-0.1,0-0.1,0-0.2,0l-0.1,0l0,0c-0.2,0-0.4,0-0.5-0.1
		c-2-0.4-2.5-2.3-2.5-2.5c0,0,0-0.1,0-0.1c-0.8-2.9,0.8-5.5,4.6-7.5c1.5-0.8,3.6-1.7,6.3-1.6c0.7,0,1.1,0.2,1.4,0.5
		c0.2,0.3,0.4,0.8,0.2,2.1c-0.2,1.2-1.7,4-2.3,5c-0.3,0.5-0.1,1.1,0.4,1.3c0.5,0.3,1.1,0.1,1.3-0.4c1-1.8,2.3-4.3,2.5-5.6
		c0.3-1.6,0.1-2.9-0.6-3.7C78.3,2.6,77.5,2,75.9,2C75.8,2,75.7,2,75.6,2 M81.1,31.4H61.9c-0.6,0-3.7-0.2-5.7-2.5
		c-0.8-1-1.8-2.6-1.5-5.2c0.4-3.8,3.2-6.9,7.4-8.4c-0.2-0.4-0.4-0.9-0.4-1.3C60.4,9.4,62.8,5.3,68,2.5c1.7-0.9,4.5-2.1,7.9-2
		c2.1,0,3.3,1,3.9,1.7c1,1.2,1.3,2.8,0.9,4.9c-0.3,1.9-2.2,5.1-2.7,6.1c-0.7,1.2-2.2,1.6-3.3,0.9c-1.2-0.7-1.6-2.2-0.9-3.3
		c0.9-1.6,2-3.8,2.1-4.5C76,5.8,76.1,5.6,76,5.4c-0.1,0-0.1,0-0.2,0c-2.3,0-4.2,0.8-5.6,1.5c-3.2,1.7-4.5,3.6-3.9,5.8
		c0,0.1,0,0.1,0,0.2c0,0.1,0.3,1.2,1.4,1.3c0.1,0,0.2,0,0.4,0l0,0c0.2,0,0.3,0,0.4,0c0.7,0,1.6,0,2,0c1.4,0,2.5,1,2.5,2.3
		c0.1,1.3-1,2.5-2.3,2.5c-0.1,0-0.5,0-1.1,0c-0.4,0-1,0-1.7-0.1c-4,0-8.1,1.6-8.5,5c-0.1,0.7,0,1.2,0.3,1.5c0.5,0.6,1.7,0.8,2.1,0.8
		l19.1,0c1.3,0,2.4,1.1,2.4,2.4C83.5,30.3,82.4,31.4,81.1,31.4"/>
	<path class="st0" d="M98.8,1.8c-1,0-2.1,0.1-3.3,0.3c-2.8,0.6-9.7,2.6-12.3,9.6c-2,5.5,1,8.7,2.9,9.7c0.5,0.2,1.1,0,1.3-0.4
		c0.2-0.5,0.1-1.1-0.4-1.3c-0.4-0.2-3.8-2.2-2-7.3c2.1-5.8,7.7-7.7,10.8-8.3c2.5-0.5,8.5-1,11,4.5c0.7,1.6,0.7,3.2,0.1,4.6
		c-1,2.2-3.5,4.1-6.6,5c-0.5,0.2-0.8,0.7-0.7,1.2c0.1,0.2,0.2,0.5,0.5,0.6c0.2,0.1,0.5,0.1,0.7,0.1c3.7-1.1,6.6-3.4,7.8-6.1
		c0.9-2,0.9-4.2-0.1-6.3C107,3.9,103.4,1.8,98.8,1.8 M86.6,23c-0.4,0-0.8-0.1-1.1-0.3c-2.3-1.2-6-5-3.6-11.5
		c2.8-7.7,10.3-9.9,13.4-10.5c6.8-1.3,12.4,1.1,14.8,6.4c1.1,2.5,1.1,5.1,0.1,7.5c-1.4,3.1-4.7,5.7-8.7,6.9
		c-0.6,0.2-1.3,0.1-1.9-0.2c-0.6-0.3-1-0.8-1.2-1.4c-0.4-1.3,0.3-2.7,1.6-3c2.7-0.8,4.9-2.4,5.7-4.2c0.5-1.1,0.5-2.2-0.1-3.4
		c-2-4.5-7.2-4.1-9.4-3.6c-2.8,0.5-7.8,2.2-9.7,7.4c-1.4,3.9,1,5.3,1.3,5.5c1.2,0.6,1.6,2.1,1,3.3C88.4,22.5,87.5,23,86.6,23"/>
	<path class="st0" d="M98.4,7.9c-0.4,0-0.7,0.2-0.9,0.6L86.2,33c-0.2,0.5,0,1.1,0.5,1.3c0.5,0.2,1.1,0,1.3-0.5L99.3,9.3
		c0.2-0.5,0-1.1-0.5-1.3C98.7,7.9,98.5,7.9,98.4,7.9 M87.1,35.8c-0.4,0-0.7-0.1-1-0.2c-1.2-0.6-1.8-2-1.2-3.2L96.2,7.8
		c0.6-1.2,2-1.8,3.2-1.2l0,0c1.2,0.6,1.8,2,1.2,3.2L89.3,34.4C88.9,35.3,88,35.8,87.1,35.8"/>
	<path class="st0" d="M114.9,1.5c-0.1,0-0.2,0-0.3,0.1c-0.2,0.1-0.4,0.3-0.6,0.5l-1.5,3.1c-0.1,0.2-0.1,0.5,0,0.7
		c0.1,0.2,0.3,0.4,0.5,0.6c0.5,0.2,1.1,0,1.3-0.5l1.5-3.1c0.1-0.2,0.1-0.5,0-0.7c-0.1-0.2-0.3-0.4-0.5-0.6
		C115.2,1.5,115,1.5,114.9,1.5 M113.4,8c-0.4,0-0.7-0.1-1-0.2c-0.6-0.3-1-0.8-1.3-1.4c-0.2-0.6-0.2-1.3,0.1-1.9l1.5-3.1
		c0.3-0.6,0.8-1,1.4-1.2c0.6-0.2,1.3-0.2,1.9,0.1c0.6,0.3,1,0.8,1.2,1.4c0.2,0.6,0.2,1.3-0.1,1.9l-1.5,3.1
		C115.2,7.5,114.3,8,113.4,8"/>
	<path class="st1" d="M95.5,40c0.3,0,0.5-0.1,0.5-0.6v-1.8c0-0.5-0.2-0.5-0.6-0.5H95V40H95.5z M96.1,41.1c0-0.4-0.2-0.5-0.6-0.5H95
		v3.8h-0.7v-7.9h1.4c0.7,0,1.1,0.1,1.1,0.9v2c0,0.6-0.2,0.8-0.8,0.9v0c0.5,0,0.8,0.2,0.8,0.7v3.4h-0.7V41.1z"/>
</g>
<polygon class="st1" points="97.8,36.5 97.8,44.5 99.7,44.5 99.7,43.9 98.5,43.9 98.5,40.6 99.7,40.6 99.7,40 98.5,40 98.5,37.1 
	99.7,37.1 99.7,36.5 "/>
<g>
	<path class="st1" d="M102.3,37.6c0-0.3-0.1-0.5-0.4-0.5c-0.3,0-0.4,0.2-0.4,0.5v0.8c0,0.3,0,0.5,0.2,0.7l1.2,2
		c0.2,0.3,0.3,0.6,0.3,1v1.3c0,0.7-0.4,1.2-1.2,1.2c-0.8,0-1.2-0.4-1.2-1.2v-1.1h0.7v1c0,0.4,0.1,0.6,0.5,0.6c0.3,0,0.4-0.2,0.4-0.6
		v-1.1c0-0.3-0.1-0.5-0.2-0.8l-1.1-1.9c-0.2-0.3-0.3-0.6-0.3-1v-1c0-0.8,0.4-1.2,1.1-1.2c0.8,0,1.1,0.4,1.1,1.1v1h-0.7V37.6z"/>
</g>
<polygon class="st1" points="104,36.5 104,37.1 104.8,37.1 104.8,44.5 105.5,44.5 105.5,37.1 106.3,37.1 106.3,36.5 "/>
<path class="st1" d="M108.2,37.1L108.2,37.1l0.6,4.6h-1.1L108.2,37.1z M107.7,36.5l-1.2,7.9h0.7l0.3-2.2h1.3l0.3,2.2h0.7l-1.2-7.9
	H107.7z"/>
<g>
	<path class="st1" d="M112.4,36.5h0.7v6.9c0,0.9-0.7,1.1-1.3,1.1c-0.6,0-1.3-0.3-1.3-1.1v-6.9h0.7v6.6c0,0.6,0.2,0.7,0.6,0.7
		c0.4,0,0.6-0.2,0.6-0.7V36.5z"/>
	<path class="st1" d="M115.3,40c0.3,0,0.5-0.1,0.5-0.6v-1.8c0-0.5-0.2-0.5-0.6-0.5h-0.4V40H115.3z M115.9,41.1
		c0-0.4-0.2-0.5-0.6-0.5h-0.5v3.8h-0.7v-7.9h1.4c0.7,0,1.1,0.1,1.1,0.9v2c0,0.6-0.2,0.8-0.8,0.9v0c0.5,0,0.8,0.2,0.8,0.7v3.4h-0.7
		V41.1z"/>
</g>
<path class="st1" d="M119.3,37.1L119.3,37.1l0.6,4.6h-1.1L119.3,37.1z M118.8,36.5l-1.2,7.9h0.7l0.3-2.2h1.3l0.3,2.2h0.7l-1.2-7.9
	H118.8z"/>
<polygon class="st1" points="123.9,36.5 123.9,43.3 123.9,43.3 123,36.5 121.9,36.5 121.9,44.5 122.6,44.5 122.6,37.4 122.6,37.4 
	123.5,44.5 124.6,44.5 124.6,36.5 "/>
<polygon class="st1" points="125.6,36.5 125.6,37.1 126.4,37.1 126.4,44.5 127.1,44.5 127.1,37.1 127.9,37.1 127.9,36.5 "/>
<g>
	<path class="st1" d="M6.3,42.6h4.4c0.5,0,0.9-0.1,0.9-0.6c0-0.5-0.4-0.7-0.9-0.7H6.3V42.6z M6.3,39.7h4.3c0.5,0,0.7-0.2,0.7-0.6
		c0-0.5-0.3-0.6-0.7-0.6H6.3V39.7z M3.9,36.5h7c1.9,0,2.9,0.5,2.9,2.1c0,1.4-0.5,1.6-1.2,1.8v0c1.1,0.1,1.5,0.7,1.5,1.9
		c0,1.8-1,2.1-2.4,2.1H3.9V36.5z"/>
</g>
<path class="st1" d="M20.7,38.4l1.6,3h-3.1L20.7,38.4z M19.1,36.5l-4.3,8h2.7l0.7-1.4h5l0.8,1.4h2.7l-4.4-8H19.1z"/>
<g>
	<path class="st1" d="M30,40.4h4c0.7,0,0.9-0.3,0.9-0.8v-0.3c0-0.7-0.4-0.8-1.1-0.8H30V40.4z M27.6,36.5h7.4c1.9,0,2.4,0.9,2.4,2.4
		v0.5c0,1.1-0.2,1.7-1.4,2v0c0.7,0.1,1.3,0.5,1.3,1.8v1.4h-2.4v-1c0-0.8-0.2-1.1-1-1.1H30v2.1h-2.4V36.5z"/>
</g>
<path class="st1" d="M59.3,36.5v1.1h-0.8v1.2h0.8v0.9h-0.8V41h0.8v3.5H61v-7.9H59.3z M61.6,45.2h2v-9.4h-2V45.2z"/>
<g>
	<path class="st1" d="M58.8,43.8l-0.6,0.7c-0.3-0.2-0.6-0.5-0.8-0.8c-0.2-0.3-0.5-0.5-0.6-0.8c-0.1,0.2-0.4,0.5-0.6,0.7
		c-0.2,0.2-0.4,0.5-0.7,0.7l-0.8-0.9c0.4-0.5,0.7-0.9,1-1.4c0.2-0.5,0.3-1,0.3-1.5v-4.1h1.7v4c0,0.4,0.1,0.8,0.2,1.3
		c0.2,0.6,0.5,1.1,1,1.5l0.2,0.2L58.8,43.8z"/>
</g>
<polygon class="st1" points="71.8,38.3 71.4,40.6 68.5,40.6 68.1,38.3 66.4,38.3 66.8,40.6 65.2,40.6 65.2,42 74.7,42 74.7,40.6 
	73.1,40.6 73.5,38.3 "/>
<rect x="65.2" y="36.5" class="st1" width="9.5" height="1.4"/>
<rect x="64.3" y="43.1" class="st1" width="11.4" height="1.4"/>
</svg>
