<svg xmlns="http://www.w3.org/2000/svg" id="korean" viewBox="0 0 132.6 58.9"><style type="text/css">
	.st0{fill:#FFFFFF;}
</style><polygon class="st0" points="29.7 4.5 29.7 11.5 25 11.5 25 19.3 29.7 19.3 29.7 24.6 25 24.6 25 32.3 29.7 32.3 29.7 54.3 40.5 54.3 40.5 4.5 "/><rect x="44.1" class="st0" width="12.4" height="58.9"/><path class="st0" d="M26.2 50.1l-3.9 4.3c-1.8-1.4-3.5-3-5-4.7 -1.5-1.8-3.2-3.3-3.8-4.7 -0.8 1.5-2.5 3-3.8 4.6 -1.3 1.5-2.8 3-4.4 4.3L0 48.3c2.7-2.9 4.7-5.8 6-8.8 1.3-2.9 2-6 2-9.2V4.6h10.5v25.2c0 2.5 0.5 5.2 1.5 7.9 1.3 3.8 3.4 6.9 6.2 9.5l1.5 1.2L26.2 50.1z"/><polygon class="st0" points="118.6 15.7 116 30.2 126.5 30.2 126.5 39 66.9 39 66.9 30.2 76.9 30.2 74.3 15.7 84.9 15.7 87.5 30.2 105.5 30.2 108.1 15.7 "/><rect x="66.8" y="4.2" class="st0" width="59.6" height="8.7"/><polygon class="st0" points="60.9 45.4 132.6 45.4 132.6 54.2 60.9 54.2 60.9 45.4 "/></svg>
