<svg xmlns="http://www.w3.org/2000/svg" viewBox="-56 139.3 846.7 224.9"><style type="text/css">  
	.st0{fill:#FFFFFF;}
</style><path class="st0" d="M129.5 151.7c-1.7 0-3.5 0.1-5.4 0.3 -27.7 2.9-45.2 16.2-47.1 17.7 -2.9 2.1-26.9 20.6-27.3 42.7 -0.4 22.5 19.1 44.6 29.5 56.4 2.2 2.5 3.7 4.2 4.4 5.1 4.6 6.4 10.5 15.8 8.3 23.7 -2.2 7.8-8.3 16.8-36 17h-96.6c-3.4 0-6.1 2.7-6.1 6.1s2.7 6.1 6.1 6.1h96.6c27.6-0.2 42.8-8.4 47.8-25.9 4.1-14.5-6.2-28.8-10.1-34.2 -1.1-1.5-2.7-3.4-5.1-6 -8.7-9.9-26.8-30.4-26.5-48.1 0.3-13.7 16.2-28.5 22.4-33.1l0.3-0.3c0.1-0.1 15.5-12.4 40.7-15.1 5.3-0.5 12.3-0.4 15.2 3.5 2.9 3.8 1.8 10.5 0.4 14 -2.1 5.5-15.2 32.1-21.8 45.5 -1.5 3-0.3 6.7 2.8 8.2 1.5 0.7 3.1 0.8 4.7 0.3 1.5-0.5 2.8-1.6 3.5-3.1 6.7-13.4 19.9-40.4 22.2-46.5 2.8-7.1 3.9-18.1-2.1-25.9C146.1 154.6 138.9 151.7 129.5 151.7M133.1 172.9 -40.7 336c-8.4 0-15.3-6.9-15.3-15.3 0-8.4 6.9-15.4 15.3-15.4h96.5C80.1 305.2 82.1 298 83 295c0.5-1.7 0.2-5.9-6.9-15.8 -0.5-0.7-2.5-2.9-3.8-4.4C61.1 262 40 238.3 40.5 212.2c0.5-25.9 25.9-46.1 30.9-49.9 3.3-2.6 22.1-16.4 51.7-19.5 19.6-2.1 29.6 5.3 34.5 11.8 8.3 10.9 7 25.6 3.3 34.8 -3.1 7.9-21.8 45.6-22.6 47.2 -1.8 3.7-5 6.4-8.8 7.7 -3.9 1.3-8 1-11.7-0.8 -7.6-3.7-10.7-13-6.9-20.5 9.2-18.5 19.8-40.5 21.5-44.7 0.7-1.7 0.8-3.8 0.7-4.9 -1-0.3-3.2-0.6-6.9-0.2 -22.1 2.3-35.8 13-35.9 13.1 -0.2 0.2-0.4 0.3-0.6 0.5 -5.8 4.3-18.5 16.7-18.6 25.8 -0.3 14.2 16.9 33.5 24.2 41.8 2.5 2.9 4.3 4.9 5.7 6.8 4.6 6.4 16.8 23.3 11.5 42.1 -6.1 21.4-25.1 32.4-56.6 32.6L-40.7 336 -40.7 336zM760 172.9l-3.7-21.2c-1.7 0-3.5 0.1-5.4 0.3 -27.7 2.9-45.2 16.2-47.1 17.7 -2.8 2.1-26.9 20.6-27.3 42.6 -0.4 22.5 19.1 44.6 29.5 56.4 2.2 2.5 3.7 4.2 4.4 5.1 4.6 6.4 10.5 15.8 8.3 23.7 -2.2 7.8-8.3 16.8-36 17H553.6c-3.4 0-6.1 2.7-6.1 6.1s2.8 6.1 6.1 6.1h129.1c27.6-0.2 42.8-8.4 47.8-25.9 4.1-14.5-6.2-28.8-10.1-34.2 -1.1-1.5-2.7-3.4-5.1-6 -8.7-9.9-26.8-30.4-26.5-48.1 0.3-13.7 16.2-28.5 22.4-33.1l0.3-0.3c0.1-0.1 15.5-12.4 40.7-15.1 5.3-0.5 12.3-0.4 15.2 3.5 2.9 3.8 1.8 10.5 0.4 14 -2.1 5.5-15.2 32.1-21.8 45.5 -0.7 1.5-0.8 3.1-0.3 4.7 0.5 1.5 1.6 2.8 3.1 3.5s3.1 0.8 4.7 0.3c1.5-0.5 2.8-1.6 3.5-3.1 6.7-13.4 19.9-40.4 22.2-46.5 2.8-7.1 3.9-18.1-2.1-25.9 -4.2-5.4-11.3-8.3-20.8-8.3M553.6 336c-8.4 0-15.3-6.9-15.3-15.3 0-8.4 6.9-15.3 15.3-15.3h129.1c24.3-0.1 26.3-7.3 27.2-10.3 0.5-1.7 0.2-5.9-6.9-15.8 -0.5-0.7-2.5-2.9-3.8-4.4 -11.3-12.8-32.3-36.6-31.8-62.7 0.5-25.9 25.8-46.1 30.9-49.8 3.3-2.6 22.1-16.4 51.7-19.5 19.5-2 29.6 5.3 34.5 11.8 8.3 10.9 7 25.6 3.4 34.8 -3.1 7.9-21.8 45.6-22.6 47.2 -1.8 3.7-5 6.4-8.8 7.7 -3.9 1.3-8 1-11.7-0.8s-6.4-5-7.7-8.8c-1.3-3.9-1-8 0.8-11.7 9.2-18.5 19.8-40.5 21.5-44.7 0.7-1.7 0.8-3.8 0.7-4.9 -1-0.3-3.2-0.6-6.9-0.2 -22.1 2.3-35.8 13-35.9 13.1 -0.2 0.2-0.4 0.3-0.6 0.5 -5.8 4.3-18.5 16.7-18.6 25.8 -0.3 14.2 16.9 33.5 24.2 41.8 2.5 2.9 4.3 4.9 5.7 6.8 4.6 6.4 16.8 23.3 11.5 42.1 -6.1 21.4-25.1 32.4-56.6 32.6H553.6L553.6 336zM194.1 251.6h70.6l-44.3 94.7c-1.4 3.1-0.1 6.7 3 8.1 3 1.4 6.8 0 8.1-3l89.4-191.1c1.4-3.1 0.1-6.7-3-8.1l0 0c-3-1.4-6.7-0.1-8.1 3l-39.4 84.2h-70.5l37-79c1.4-3.1 0.1-6.7-2.9-8.2 -1.5-0.7-3.1-0.8-4.7-0.2 -1.5 0.6-2.8 1.7-3.5 3.2l-39.4 84.2H159c-3.4 0-6.1 2.7-6.1 6.1 0 3.4 2.7 6.1 6.1 6.1h21.5l-31.9 68.1c-0.7 1.5-0.8 3.1-0.2 4.7 0.6 1.5 1.7 2.8 3.2 3.5 3 1.4 6.8 0 8.2-2.9L194.1 251.6zM225.9 364.2c-2.2 0-4.4-0.5-6.5-1.4 -7.7-3.6-11-12.7-7.4-20.4l38.2-81.6h-50.3l-31.9 68c-2.5 5.4-8 8.8-13.9 8.8 -2.3 0-4.4-0.5-6.5-1.5 -3.7-1.7-6.5-4.8-7.9-8.7 -1.4-3.8-1.2-8 0.5-11.7l25.8-55h-7c-8.4 0-15.3-6.9-15.3-15.3 0-8.4 6.9-15.3 15.3-15.3h21.4l37-78.9c1.7-3.7 4.8-6.5 8.7-7.9 3.9-1.4 8-1.2 11.7 0.5 7.6 3.6 11 12.7 7.4 20.4l-30.9 65.9h50.2l36.9-78.8c3.6-7.6 12.7-11 20.4-7.4 7.6 3.6 11 12.7 7.4 20.4l-89.4 191.1C237.3 360.8 231.8 364.2 225.9 364.2M418.4 151.7c-18.6 0-33.6 6.6-43.4 11.7 -28.8 14.9-41.7 37.2-35.2 61 0.5 2.3 1.6 6.3 4.4 10.9l3.2 5.2 -5.9 1.7c-20.1 5.7-42.6 20.9-45.2 46.5 -1.3 13 3.3 21.2 7.3 25.8 10.3 11.7 26.9 12.4 28.8 12.5h120.4c3.4 0 6.1-2.7 6.1-6.1 0-3.4-2.8-6.1-6.1-6.1H332.6c-0.8 0-13.1-0.7-19.8-8.4 -3.5-4.1-4.9-9.4-4.2-16.4 2.7-26.8 33.2-39.1 62.3-39.4h0.2 0.2c3 0.2 6.6 0.4 10 0.4s6-0.1 6.6-0.1c3.4-0.1 6-3 5.9-6.4 -0.1-3.3-3.1-5.9-6.4-5.9 -2.4 0.1-8.5 0.2-13.8-0.1l-0.5-0.1c-0.3-0.1-0.7-0.1-1.1-0.1h-0.7 -0.2c-1.2-0.1-2.3-0.2-3.3-0.4 -12.7-2.2-15.6-14.3-15.9-15.6 -0.1-0.3-0.1-0.5-0.2-0.6 -5.2-18.4 4.9-34.7 28.9-47.2 9.6-5 22.7-10.7 39.3-10.3 4.1 0.1 7 1.1 8.5 2.9 1.3 1.6 2.7 5.3 1.2 13.3 -1.3 7.3-10.9 24.9-14.5 31.1 -1.7 2.9-0.7 6.7 2.2 8.4 2.9 1.7 6.7 0.7 8.4-2.2 6.5-11.1 14.5-27 16-35.1 1.8-10.1 0.5-17.9-3.8-23.2 -2.7-3.3-7.9-7.2-17.7-7.4C419.7 151.7 419.1 151.7 418.4 151.7M452.9 336H332.4c-3.8-0.1-23-1.3-35.6-15.6 -5.3-6-11.2-16.5-9.5-32.8 2.4-23.7 20-43.5 46.4-52.8 -1.3-2.8-2.2-5.7-2.8-8.5 -7.6-28.1 6.9-54.1 39.9-71.3 11-5.7 28.1-13.2 49.7-12.7 13.3 0.3 20.7 6 24.6 10.8 6.1 7.5 8.1 17.8 5.8 30.7 -2.1 11.7-13.6 32.1-17.1 38.1 -4.2 7.3-13.6 9.8-20.9 5.5 -7.3-4.2-9.8-13.6-5.6-20.9 5.8-10.1 12.6-23.8 13.4-28.1 0.5-2.6 0.5-4.3 0.5-5.3 -0.4 0-0.8-0.1-1.4-0.1 -14.6-0.3-26.3 4.8-34.9 9.3 -20 10.4-28.2 22.7-24.3 36.5 0.1 0.4 0.2 0.9 0.3 1.3 0.1 0.6 1.8 7.2 8.5 8.4 0.7 0.1 1.4 0.2 2.3 0.3h0.3c0.9 0 1.8 0.1 2.4 0.2 4.5 0.2 10.1 0.2 12.8 0.1 8.5-0.2 15.6 6.4 15.9 14.7 0.3 8.4-6.3 15.6-14.7 15.9 -0.6 0-3.4 0.1-7 0.1 -2.5 0-6.4-0.1-10.5-0.4 -24.9 0.3-51 10-53.1 31.1 -0.4 4.3 0.2 7.4 2 9.5 3.4 3.9 10.8 5.1 13.1 5.2h120c8.4 0 15.3 6.9 15.3 15.3C468.2 329.2 461.4 336 452.9 336M564 150.8c-6.5 0-13.4 0.7-20.5 2.1 -17.8 3.5-61 16.3-77 60.2 -12.5 34.5 6.5 54.8 18.3 60.8 2.9 1.5 6.6 0.2 8.1-2.7 1.5-3 0.4-6.7-2.6-8.3 -2.5-1.3-23.9-13.9-12.3-45.7 13.3-36.7 48.2-48.6 67.8-52.4 15.6-3 53.5-6.4 69.1 28.1 4.5 10 4.7 19.8 0.4 29.1 -6.2 13.7-22.1 25.8-41.4 31.6 -3.2 1-5.1 4.4-4.1 7.6 0.5 1.6 1.5 2.9 3 3.6 1.4 0.8 3.1 0.9 4.7 0.5 22.9-6.9 41.3-21.2 49-38.3 5.7-12.5 5.5-26.1-0.4-39.3C615.3 163.9 592.8 150.8 564 150.8M487.6 283.7c-2.4 0-4.7-0.6-6.9-1.6 -14.3-7.2-37.5-31.6-22.8-72.1 17.6-48.3 64.5-62.3 83.9-66.1 42.9-8.4 77.6 6.7 92.7 40.3 7.1 15.7 7.2 31.9 0.4 46.8 -8.8 19.4-29.3 35.6-54.8 43.3 -3.9 1.2-8.1 0.8-11.7-1.2 -3.6-1.9-6.2-5.2-7.4-9.1 -2.4-8.1 2.2-16.6 10.3-19.1 16.9-5.1 30.5-15.3 35.7-26.6 3.1-6.8 2.9-14-0.4-21.5 -12.8-28.5-45.5-25.5-58.9-22.9 -17.7 3.4-49.1 14.1-60.9 46.5 -8.9 24.5 6.3 33.5 8 34.4 7.4 4 10.3 13.2 6.4 20.6C498.5 280.5 493.3 283.7 487.6 283.7M561.6 188.7c-2.3 0-4.5 1.3-5.6 3.6l-71.3 154c-1.4 3.1-0.1 6.7 3 8.1 3 1.4 6.8 0 8.1-3l71.3-154.1c1.4-3.1 0.1-6.7-3-8.1C563.3 188.9 562.4 188.7 561.6 188.7M490.3 364.2c-2.2 0-4.4-0.5-6.4-1.4 -7.7-3.5-11-12.7-7.5-20.3l71.3-154.1c3.5-7.7 12.7-11 20.3-7.5l0 0c7.7 3.5 11 12.7 7.5 20.3l-71.3 154.1C501.7 360.7 496.2 364.2 490.3 364.2M664.9 148.5c-0.7 0-1.4 0.1-2.1 0.4 -1.5 0.5-2.8 1.7-3.5 3.1l-9.3 19.6c-0.7 1.5-0.8 3.1-0.2 4.7 0.5 1.5 1.7 2.8 3.1 3.5 3 1.4 6.8 0.1 8.2-2.9l9.4-19.7c0.7-1.5 0.8-3.1 0.3-4.7 -0.5-1.5-1.7-2.8-3.1-3.5C666.7 148.7 665.8 148.5 664.9 148.5M655.5 189.6c-2.3 0-4.5-0.5-6.6-1.5 -3.7-1.8-6.5-4.9-7.9-8.7 -1.4-3.9-1.1-8 0.6-11.7L651 148c1.8-3.7 4.9-6.5 8.7-7.8 3.9-1.4 8-1.1 11.7 0.6 3.7 1.8 6.5 4.9 7.8 8.7 1.4 3.9 1.1 8-0.6 11.7l-9.4 19.7C666.8 186.2 661.4 189.6 655.5 189.6"/></svg>